# xmcd CD database file
# Copyright (C) 1993-1998 Ti Kan
#
# Track frame offsets:
#	150
#	20785
#	38607
#	67987
#	86452
#	109010
#	124757
#	152630
#	172185
#
# Disc length: 2544 seconds
#
# Revision: 1
# Processed by: cddbd v1.4b41PL1 Copyright (c) Steve Scherf et al.
# Submitted via: CDValet v3.31 - Copyright (c) 1997 Greg Leichner
#
DISCID=6d09ee09
DTITLE=L.J. Porter - Rollercoaster
DYEAR=1900
DGENRE=
TTITLE0=Shake Your Hand
TTITLE1=My Baby's Lovin'
TTITLE2=You Can Run Away
TTITLE3=Feel So Bad
TTITLE4=Groove Me
TTITLE5=Rollercoaster
TTITLE6=Walk Away
TTITLE7=Honest I Do
TTITLE8=Saturday Night
EXTD=
EXTT0=
EXTT1=
EXTT2=
EXTT3=
EXTT4=
EXTT5=
EXTT6=
EXTT7=
EXTT8=
PLAYORDER=
